<svg width="31" height="29" viewBox="0 0 31 29" fill="none" xmlns="http://www.w3.org/2000/svg">
<path d="M12.4878 21.1836V11.5193H11.2617C10.4595 11.9229 9.49829 12.4539 8.71875 12.9778V14.238C9.44531 13.7708 10.5957 13.1123 11.1558 12.8291H11.1785V21.1836H12.4878Z" fill="black"/>
<path d="M14.7886 18.8188C14.8794 19.98 15.939 21.3677 18.0884 21.3677C20.5254 21.3677 21.9634 19.4348 21.9634 16.1638C21.9634 12.6592 20.4497 11.3281 18.1792 11.3281C16.3855 11.3281 14.6978 12.5459 14.6978 14.6062C14.6978 16.709 16.2947 17.8135 17.9446 17.8135C19.3901 17.8135 20.3286 17.1338 20.6238 16.3833H20.6768C20.6692 18.7693 19.7837 20.3057 18.1489 20.3057C16.8623 20.3057 16.1963 19.4915 16.113 18.8188H14.7886ZM20.5103 14.6204C20.5103 15.8806 19.428 16.7585 18.217 16.7585C17.0515 16.7585 15.9995 16.0647 15.9995 14.585C15.9995 13.0911 17.1272 12.3901 18.2625 12.3901C19.4885 12.3901 20.5103 13.1123 20.5103 14.6204Z" fill="black"/>
<path d="M6.78125 0C7.31628 0 7.75 0.405742 7.75 0.90625V1.8125H23.25V0.90625C23.25 0.405742 23.6837 0 24.2188 0C24.7538 0 25.1875 0.405742 25.1875 0.90625V1.8125H27.125C29.2651 1.8125 31 3.43547 31 5.4375V25.375C31 27.377 29.2651 29 27.125 29H3.875C1.7349 29 0 27.377 0 25.375V5.4375C0 3.43547 1.7349 1.8125 3.875 1.8125H5.8125V0.90625C5.8125 0.405742 6.24622 0 6.78125 0ZM1.9375 7.25V25.375C1.9375 26.376 2.80495 27.1875 3.875 27.1875H27.125C28.1951 27.1875 29.0625 26.376 29.0625 25.375V7.25H1.9375Z" fill="black"/>
</svg>
