<svg width="29" height="29" viewBox="0 0 29 29" fill="none" xmlns="http://www.w3.org/2000/svg">
<path d="M15.4334 1.84687C15.1235 1.82402 14.8122 1.8125 14.5 1.8125V0C14.8568 0 15.2126 0.0131624 15.5667 0.0392808L15.4334 1.84687ZM19.0662 2.66265C18.4849 2.43842 17.8878 2.25729 17.2798 2.12077L17.677 0.352317C18.3718 0.508338 19.0541 0.715331 19.7185 0.971599L19.0662 2.66265ZM21.5488 3.95073C21.2892 3.77728 21.024 3.6139 20.7536 3.46076L21.647 1.88373C21.956 2.05875 22.2591 2.24548 22.5558 2.44369C22.8524 2.64191 23.1409 2.85052 23.4209 3.06897L22.3058 4.49786C22.0608 4.30671 21.8084 4.12418 21.5488 3.95073ZM24.8731 7.19444C24.5143 6.68502 24.1185 6.20271 23.6889 5.75145L25.0016 4.50166C25.4926 5.01739 25.945 5.5686 26.355 6.15077L24.8731 7.19444ZM26.2217 9.6447C26.1023 9.35627 25.9725 9.07306 25.8328 8.79555L27.4518 7.98064C27.6114 8.2978 27.7597 8.62147 27.8963 8.95109C28.0328 9.28071 28.1568 9.61446 28.2682 9.95161L26.5472 10.5202C26.4497 10.2252 26.3412 9.93314 26.2217 9.6447ZM27.1837 14.1886C27.1684 13.5658 27.1072 12.9448 27.0007 12.3309L28.7865 12.0211C28.9083 12.7227 28.9782 13.4323 28.9956 14.1441L27.1837 14.1886ZM26.9437 16.9752C27.0046 16.669 27.0541 16.3614 27.0921 16.0531L28.891 16.275C28.8475 16.6274 28.791 16.9789 28.7214 17.3288C28.6518 17.6787 28.5695 18.0251 28.4748 18.3673L26.7279 17.8839C26.8108 17.5845 26.8828 17.2814 26.9437 16.9752ZM25.2191 21.2878C25.5524 20.7614 25.8465 20.2111 26.099 19.6415L27.756 20.376C27.4675 21.027 27.1313 21.6559 26.7504 22.2575L25.2191 21.2878ZM23.4714 23.4714C23.6922 23.2507 23.9042 23.0224 24.1071 22.7871L25.4795 23.971C25.2476 24.2399 25.0053 24.5008 24.7531 24.753L23.4714 23.4714Z" fill="black"/>
<path d="M14.5 1.8125C12.4135 1.8125 10.3593 2.32707 8.51916 3.31062C6.67905 4.29418 5.10991 5.71636 3.95073 7.4512C2.79155 9.18604 2.07811 11.18 1.8736 13.2564C1.66909 15.3328 1.97982 17.4276 2.77828 19.3553C3.57674 21.2829 4.83827 22.9839 6.45114 24.3076C8.064 25.6312 9.97841 26.5367 12.0248 26.9437C14.0712 27.3508 16.1864 27.2469 18.183 26.6412C20.1796 26.0355 21.9961 24.9468 23.4714 23.4714L24.7531 24.753C23.0669 26.4392 20.991 27.6834 18.7091 28.3756C16.4273 29.0678 14.0099 29.1866 11.6712 28.7214C9.33247 28.2562 7.14457 27.2214 5.3013 25.7087C3.45803 24.1959 2.01627 22.2519 1.10375 20.0489C0.191227 17.8459 -0.163901 15.4518 0.0698251 13.0788C0.303551 10.7057 1.11892 8.4269 2.44369 6.44423C3.76847 4.46156 5.56178 2.83621 7.66475 1.71214C9.76773 0.588078 12.1155 0 14.5 0V1.8125Z" fill="black"/>
<path d="M13.5938 5.4375C14.0943 5.4375 14.5 5.84324 14.5 6.34375V15.7866L20.3871 19.1507C20.8217 19.399 20.9727 19.9526 20.7243 20.3871C20.476 20.8217 19.9224 20.9727 19.4879 20.7243L13.1441 17.0993C12.8618 16.938 12.6875 16.6377 12.6875 16.3125V6.34375C12.6875 5.84324 13.0932 5.4375 13.5938 5.4375Z" fill="black"/>
</svg>
