<svg width="37" height="30" viewBox="0 0 37 30" fill="none" xmlns="http://www.w3.org/2000/svg">
<path d="M32.375 19.6875C32.375 19.1697 31.8573 18.75 31.2188 18.75H24.2812C23.6427 18.75 23.125 19.1697 23.125 19.6875C23.125 20.2053 23.6427 20.625 24.2812 20.625H31.2188C31.8573 20.625 32.375 20.2053 32.375 19.6875Z" fill="black"/>
<path d="M32.375 14.0625C32.375 13.5447 31.8573 13.125 31.2188 13.125H15.0312C14.3927 13.125 13.875 13.5447 13.875 14.0625C13.875 14.5803 14.3927 15 15.0312 15H31.2188C31.8573 15 32.375 14.5803 32.375 14.0625Z" fill="black"/>
<path d="M32.375 8.4375C32.375 7.91973 31.8573 7.5 31.2188 7.5H5.78125C5.14267 7.5 4.625 7.91973 4.625 8.4375C4.625 8.95527 5.14267 9.375 5.78125 9.375H31.2188C31.8573 9.375 32.375 8.95527 32.375 8.4375Z" fill="black"/>
</svg>
